HIERARCHY
ROOT root
{
	OFFSET	0	13.1	24.9
	CHANNELS 6  Xposition Yposition Zposition Xrotation Yrotation Zrotation
	JOINT spine_1
	{
		OFFSET	0	9.99999	0
		CHANNELS 3  Xrotation Yrotation Zrotation
		JOINT spine_2
		{
			OFFSET	0	112	-10
			CHANNELS 3  Xrotation Yrotation Zrotation
			JOINT spine_3
			{
				OFFSET	0	206.5	19.3
				CHANNELS 3  Xrotation Yrotation Zrotation
				JOINT spine_4
				{
					OFFSET	0	110.4	14.6
					CHANNELS 3  Xrotation Yrotation Zrotation
					JOINT neck_1
					{
						OFFSET	0	71.8	-50.3
						CHANNELS 3  Xrotation Yrotation Zrotation
						JOINT neck_2
						{
							OFFSET	0	86.2	-25.8
							CHANNELS 3  Xrotation Yrotation Zrotation
							JOINT head_ee
							{
								OFFSET	0	179.8	-8.7
								CHANNELS 3  Xrotation Yrotation Zrotation
								End Site
								{
									OFFSET	1	0	0
								}
							}
						}
					}
					JOINT left_clavicle
					{
						OFFSET	-43.2	22.4	-70.8
						CHANNELS 3  Xrotation Yrotation Zrotation
						JOINT left_shoulder
						{
							OFFSET	-93.9	-5.79999	48.7
							CHANNELS 3  Xrotation Yrotation Zrotation
							JOINT left_elbow
							{
								OFFSET	-291.4	-30.8	15.2
								CHANNELS 3  Xrotation Yrotation Zrotation
								JOINT left_lowarm_twist
								{
									OFFSET	-110.7	-3.89999	13.6
									CHANNELS 3  Xrotation Yrotation Zrotation
									JOINT left_hand
									{
										OFFSET	-110.7	-3.89999	13.6
										CHANNELS 3  Xrotation Yrotation Zrotation
										JOINT left_ee
										{
											OFFSET	-80.8	-5.10001	12.1
											CHANNELS 3  Xrotation Yrotation Zrotation
											End Site
											{
												OFFSET	1	0	0
											}
										}
									}
								}
							}
						}
					}
					JOINT right_clavicle
					{
						OFFSET	43.2	22.4	-70.8
						CHANNELS 3  Xrotation Yrotation Zrotation
						JOINT right_shoulder
						{
							OFFSET	93.9	-5.79999	48.7
							CHANNELS 3  Xrotation Yrotation Zrotation
							JOINT right_elbow
							{
								OFFSET	291.4	-30.8	15.2
								CHANNELS 3  Xrotation Yrotation Zrotation
								JOINT right_lowarm_twist
								{
									OFFSET	110.7	-3.89999	13.6
									CHANNELS 3  Xrotation Yrotation Zrotation
									JOINT right_hand
									{
										OFFSET	110.7	-3.89999	13.6
										CHANNELS 3  Xrotation Yrotation Zrotation
										JOINT right_ee
										{
											OFFSET	80.8	-5.10001	12.1
											CHANNELS 3  Xrotation Yrotation Zrotation
											End Site
											{
												OFFSET	1	0	0
											}
										}
									}
								}
							}
						}
					}
				}
			}
		}
	}
	JOINT left_hip
	{
		OFFSET	-82.8	-127.5	0.300001
		CHANNELS 3  Xrotation Yrotation Zrotation
		JOINT left_knee
		{
			OFFSET	-28.2	-396.7	2.2
			CHANNELS 3  Xrotation Yrotation Zrotation
			JOINT left_ankle
			{
				OFFSET	-11.7	-411.3	35.4
				CHANNELS 3  Xrotation Yrotation Zrotation
				JOINT left_toes
				{
					OFFSET	0	-60	-88.6
					CHANNELS 3  Xrotation Yrotation Zrotation
					JOINT left_foot_ee
					{
						OFFSET	-22.5	-16.5	-42.2
						CHANNELS 3  Xrotation Yrotation Zrotation
						End Site
						{
							OFFSET	1	0	0
						}
					}
				}
			}
		}
	}
	JOINT right_hip
	{
		OFFSET	82.8	-127.5	0.300001
		CHANNELS 3  Xrotation Yrotation Zrotation
		JOINT right_knee
		{
			OFFSET	28.2	-396.7	2.2
			CHANNELS 3  Xrotation Yrotation Zrotation
			JOINT right_ankle
			{
				OFFSET	11.7	-411.3	35.4
				CHANNELS 3  Xrotation Yrotation Zrotation
				JOINT right_toes
				{
					OFFSET	0	-60	-88.6
					CHANNELS 3  Xrotation Yrotation Zrotation
					JOINT right_foot_ee
					{
						OFFSET	22.5	-16.5	-42.2
						CHANNELS 3  Xrotation Yrotation Zrotation
						End Site
						{
							OFFSET	1	0	0
						}
					}
				}
			}
		}
	}
}
MOTION
Frames: 15
Frame Time: 0.02
1943.58 695.038 -1394.25 17.3799 71.5093 -15.875 -2.43496 0.384708 1.3976 -2.43392 0.295005 1.41924 -2.42515 -0.0711845 1.44782 -2.42804 0.158341 1.44089 -8.12799 17.6146 -5.85708 -8.17723 36.9935 -1.79476 -0.0 0.0 -0.0 -0.941951 23.8909 1.48463 -23.1026 -23.907 67.3436 0.511551 -14.22 0.0638082 40.0703 -0.352925 -5.00367 -0.134475 28.9781 10.599 -0.0 0.0 -0.0 12.3891 22.315 -24.6452 15.3741 30.8875 -52.4951 2.18713 47.2873 -0.957615 4.2873 -0.131204 0.53178 1.57516 18.8439 -2.46927 0.0 0.0 0.0 18.5551 -4.31324 -7.54813 -2.6124 0.098713 0.388732 -0.837407 20.8579 0.125725 -31.4656 0.0 0.0 -0.0 0.0 -0.0 -24.6158 21.2694 -0.393422 -9.40623 -0.271522 -1.41641 22.5493 -13.1238 3.05969 0.466795 -0.0 -0.0 0.0 0.0 0.0 
1916.23 691.893 -1392.16 16.6232 71.3906 -14.5354 -2.26802 0.302521 1.37892 -2.26699 0.214172 1.39537 -2.26048 -0.139408 1.40481 -2.26322 0.0841815 1.40919 -4.87048 16.5386 -6.35271 -4.34137 35.1361 -3.75214 -0.0 0.0 -0.0 -1.16955 23.9122 1.17918 -22.81 -24.3979 67.597 0.520994 -14.4716 0.066148 40.2026 -0.35984 -5.01911 -0.0439136 29.0974 11.137 -0.0 0.0 -0.0 12.2342 22.0265 -24.3136 13.9345 30.1601 -53.5262 2.10263 46.1611 -0.896087 3.08294 -0.0983753 0.38144 1.58696 17.9611 -2.94704 0.0 0.0 0.0 18.4464 -4.58534 -8.49842 -4.83551 0.168672 0.722719 -3.04348 19.851 0.45731 -31.5106 0.0 0.0 -0.0 0.0 -0.0 -24.8773 21.4886 -0.577745 -9.82976 -0.278244 -1.48105 18.1203 -15.1932 2.51893 1.07978 -0.0 -0.0 0.0 0.0 0.0 
1883.56 692.596 -1394.64 15.9004 71.1312 -13.5418 -2.08428 0.256292 1.46362 -2.0831 0.16265 1.47696 -2.07758 -0.204919 1.47169 -2.0806 0.0300523 1.48558 -1.51128 16.222 -6.23305 -0.50385 34.1565 -4.83424 -0.0 0.0 -0.0 -1.2271 23.9843 1.11167 -22.1825 -24.396 68.8835 0.498321 -13.8666 0.060598 40.3369 -0.366902 -5.03477 0.034635 28.9367 11.5125 -0.0 0.0 -0.0 12.02 21.596 -23.8576 11.8989 29.5214 -55.4152 2.08898 45.9748 -0.886258 1.46885 -0.0494327 0.181084 1.45043 14.6507 -3.51311 0.0 0.0 0.0 17.9454 -4.97401 -9.03127 -8.13397 0.24846 1.22255 1.71529 16.8492 -0.252739 -32.4167 0.0 0.0 -0.0 0.0 -0.0 -26.2246 21.8376 -0.824854 -10.8913 -0.292989 -1.64327 17.993 -15.749 2.50603 3.87366 -0.0 -0.0 0.0 0.0 0.0 
1848.66 695.317 -1389.86 15.8481 70.9037 -13.0541 -1.9005 0.222048 1.51033 -1.89923 0.125504 1.52139 -1.89459 -0.247042 1.50644 -1.89776 -0.00605581 1.52655 0.439748 15.3873 -6.03718 1.59167 32.2811 -5.29714 -0.0 0.0 -0.0 -1.09729 23.7832 1.25886 -22.5063 -24.5153 68.4611 0.515218 -14.3178 0.064712 40.8356 -0.393436 -5.09278 0.0675667 28.9416 11.6954 -0.0 0.0 -0.0 11.7127 20.7119 -23.2237 9.05411 28.1629 -56.385 2.11522 46.332 -0.905184 0.12007 -0.00421528 0.014755 1.98435 15.0238 -6.94217 0.0 0.0 0.0 18.9882 -4.97597 -9.10035 -16.4365 0.321047 2.49328 8.57709 16.4387 -1.23849 -34.2961 0.0 0.0 -0.0 0.0 -0.0 -25.2254 23.6203 -1.63668 -16.2953 -0.321353 -2.47162 11.3002 -22.8461 1.65551 4.08151 -0.0 -0.0 0.0 0.0 0.0 
1827.97 698.358 -1387.98 17.3301 71.6028 -14.444 -1.81053 0.128835 1.53809 -1.80921 0.0307131 1.54317 -1.80717 -0.34202 1.50511 -1.81032 -0.100054 1.54023 -0.346313 13.9708 -5.0193 0.460154 29.0286 -4.02722 -0.0 0.0 -0.0 -1.18451 23.5187 1.10227 -19.7373 -24.6538 67.4098 0.504439 -14.0302 0.0620725 41.4074 -0.424483 -5.159 0.164198 28.0615 11.9303 -0.0 0.0 -0.0 11.5063 19.7598 -22.8217 7.06965 27.7366 -57.5968 2.11834 46.3741 -0.907437 -0.116925 0.00413464 -0.0143602 2.08669 14.8539 -7.71088 0.0 0.0 0.0 17.0389 -4.93897 -8.4369 -17.7132 0.315849 2.68909 14.7219 11.555 -2.06113 -33.4804 0.0 0.0 -0.0 0.0 -0.0 -22.2508 25.0196 -2.95114 -20.8785 -0.284162 -3.17366 4.56124 -26.6169 0.695136 5.84973 -0.0 -0.0 0.0 0.0 0.0 
1804.29 699.562 -1387.82 17.12 71.8988 -14.3497 -1.65232 0.20118 1.52926 -1.65103 0.103473 1.53896 -1.64702 -0.266119 1.51931 -1.65024 -0.0228623 1.54227 -0.484805 13.1708 -4.98057 0.233969 27.58 -4.01296 -0.0 0.0 -0.0 -1.237 23.849 1.0786 -18.2023 -25.5286 65.1694 0.57707 -15.9535 0.0808636 41.5543 -0.432564 -5.17596 0.266495 28.3269 12.5898 -0.0 0.0 -0.0 11.9752 21.367 -23.7736 5.68777 26.7531 -57.9404 1.63655 39.0286 -0.580026 -0.99427 0.0360921 -0.121842 2.52474 15.639 -10.3186 0.0 0.0 0.0 15.9267 -4.26713 -7.44748 -18.7802 0.308159 2.85263 18.6773 13.6701 -2.58162 -35.3909 0.0 0.0 -0.0 0.0 -0.0 -20.3218 26.0338 -3.68726 -23.4432 -0.238886 -3.56459 -0.979094 -29.0004 -0.153367 5.77883 -0.0 -0.0 0.0 0.0 0.0 
1778.16 700.77 -1388.77 18.2814 72.4936 -15.8716 -1.53119 0.181447 1.64939 -1.52968 0.0761393 1.65759 -1.52614 -0.317511 1.62868 -1.52983 -0.0563435 1.65838 -0.749448 13.933 -3.95177 -0.0759083 28.1563 -2.75336 -0.0 0.0 -0.0 -1.34027 23.8928 0.944955 -15.8207 -27.3329 63.4798 0.593931 -16.3949 0.0855604 41.7381 -0.442742 -5.19716 0.225117 28.9785 12.5767 -0.0 0.0 -0.0 12.0664 20.5302 -24.0478 3.9144 25.9322 -58.7895 1.44948 35.6773 -0.466478 -2.00673 0.0750143 -0.245261 3.21025 19.6539 -13.0236 0.0 0.0 0.0 14.5652 -3.0225 -6.99192 -21.2088 0.279313 3.22412 26.4739 8.70266 -3.5022 -35.1892 0.0 0.0 -0.0 0.0 -0.0 -19.2547 25.4391 -4.78383 -28.0762 -0.11293 -4.26425 -3.94739 -29.1087 -0.622267 5.2435 -0.0 -0.0 0.0 0.0 0.0 
1753.67 699.757 -1389.25 21.5021 72.9846 -19.0679 -1.58828 0.0159402 1.72946 -1.58662 -0.0941252 1.72697 -1.58819 -0.501215 1.65533 -1.59194 -0.233537 1.7137 -0.78657 12.7037 -3.49029 -0.2457 25.5853 -2.3541 -0.0 0.0 -0.0 -1.19806 23.3891 1.06504 -13.4675 -27.6503 63.0109 0.604084 -16.6597 0.0884486 41.8215 -0.44738 -5.20677 0.223925 29.0276 12.5865 -0.0 0.0 -0.0 12.2083 22.8096 -24.1847 1.65944 25.3365 -59.2333 1.24434 31.6488 -0.352698 -3.03446 0.116751 -0.369828 3.488 19.4181 -15.032 0.0 0.0 0.0 11.9414 -2.23121 -6.43817 -20.7009 0.286648 3.14653 30.0163 4.38981 -3.89159 -34.9712 0.0 0.0 -0.0 0.0 -0.0 -17.6844 25.105 -5.31772 -32.3701 0.0539881 -4.90191 -10.3735 -29.5212 -1.65552 5.77887 -0.0 -0.0 0.0 0.0 0.0 
1712.46 708.639 -1382.96 25.1088 73.9211 -22.4641 -1.49917 0.111659 1.59825 -1.49775 0.00974512 1.60212 -1.4963 -0.368132 1.55929 -1.49968 -0.117284 1.59785 0.353189 13.2392 -4.26546 1.08551 27.0387 -3.4234 -0.0 0.0 -0.0 -0.976311 24.0453 1.45931 -11.5324 -28.6457 61.3228 0.75463 -20.4968 0.136439 43.1127 -0.520989 -5.35464 0.168554 28.9414 12.252 -0.0 0.0 -0.0 11.5521 21.7924 -22.7711 -3.31349 23.8221 -60.8369 1.14652 29.5935 -0.302862 -4.93204 0.199667 -0.597806 3.74024 20.514 -16.1834 0.0 0.0 0.0 9.01327 -2.83325 -4.61423 -22.4901 0.257755 3.41954 31.9579 4.37205 -4.09522 -35.7621 0.0 0.0 -0.0 0.0 -0.0 -16.2635 25.38 -6.61618 -33.7982 0.120055 -5.11107 -16.9385 -29.1861 -2.71392 4.96888 -0.0 -0.0 0.0 0.0 0.0 
1692.56 723.252 -1382.37 31.2958 74.9811 -28.9374 -1.54072 -0.105248 1.72591 -1.53908 -0.214843 1.71572 -1.54445 -0.614626 1.61622 -1.54792 -0.351699 1.69298 0.275624 13.2767 -3.73251 0.959791 26.6838 -2.81251 -0.0 0.0 -0.0 -1.05792 23.2097 1.23191 -9.10738 -29.1364 61.4334 0.821644 -22.1471 0.160809 43.0611 -0.517986 -5.34877 -0.0100491 28.9899 11.2853 -0.0 0.0 -0.0 11.6124 19.8385 -23.0584 -6.01672 22.7301 -61.4047 1.05827 27.6645 -0.260574 -5.17425 0.210793 -0.626707 3.83639 21.1633 -16.4937 0.0 0.0 0.0 6.88339 -4.3091 -3.36073 -22.078 0.265165 3.35675 31.1767 1.34545 -4.0258 -37.1433 0.0 0.0 -0.0 0.0 -0.0 -13.9555 26.9414 -8.30588 -35.253 0.192707 -5.32241 -18.4701 -29.6583 -2.97125 5.43576 -0.0 -0.0 0.0 0.0 0.0 
1678.19 722.478 -1378.6 35.4518 75.311 -33.3566 -1.68973 -0.216116 1.70825 -1.68817 -0.324363 1.69105 -1.69682 -0.719398 1.56442 -1.69993 -0.463334 1.65837 -2.05174 13.2695 -3.04747 -1.59604 26.3958 -1.52957 -0.0 0.0 -0.0 -0.565249 23.0182 1.88539 -6.89404 -30.6578 60.4077 0.859585 -23.0647 0.175393 44.0442 -0.576159 -5.46029 -0.0657344 29.0003 10.9834 -0.0 0.0 -0.0 11.6118 20.604 -23.0014 -6.88577 22.2028 -61.8752 0.873969 23.4094 -0.181068 -6.29478 0.263857 -0.759797 3.76937 19.8768 -16.7198 0.0 0.0 0.0 4.47548 -6.34622 -2.3364 -20.0182 0.295423 3.04215 34.9162 -1.85103 -4.42722 -37.5321 0.0 0.0 -0.0 0.0 -0.0 -11.493 29.4249 -9.18634 -37.8352 0.334819 -5.69283 -21.6147 -29.7774 -3.48428 4.33298 -0.0 -0.0 0.0 0.0 0.0 
1658.47 727.779 -1374.04 33.7903 74.1924 -31.8175 -1.71339 0.107205 1.65674 -1.71187 0.00157979 1.6602 -1.71049 -0.395798 1.61234 -1.71409 -0.136228 1.6546 -4.52313 12.7631 -4.01392 -4.23722 26.4397 -2.02571 -0.0 0.0 -0.0 -0.391603 22.3926 2.04937 -5.12105 -33.6641 59.4962 0.947776 -25.1497 0.211421 44.7654 -0.620048 -5.54146 -0.0770191 28.8849 10.881 -0.0 0.0 -0.0 11.2184 18.671 -22.2386 -8.78986 21.8276 -62.8094 0.793987 21.4705 -0.150534 -7.08471 0.302828 -0.852992 3.97609 20.091 -18.0288 0.0 0.0 0.0 2.86339 -7.98346 -2.01169 -19.9694 0.296002 3.03468 31.8939 -2.20301 -4.12837 -38.8954 0.0 0.0 -0.0 0.0 -0.0 -8.75521 32.3496 -9.96302 -40.1841 0.478523 -6.02404 -21.9791 -27.9991 -3.50309 4.29611 -0.0 -0.0 0.0 0.0 0.0 
1649.39 726.381 -1373.69 31.7715 73.7723 -29.4068 -1.78096 0.104526 1.58314 -1.77957 0.00358742 1.58659 -1.77823 -0.378044 1.5409 -1.78152 -0.129975 1.58126 -5.93345 11.8643 -2.63835 -5.82432 23.871 -0.445838 -0.0 0.0 -0.0 -0.214594 21.7933 2.22725 -1.74638 -32.6908 59.7047 1.11173 -28.8414 0.28588 45.0485 -0.637563 -5.57318 -0.0766553 28.9323 10.8996 -0.0 0.0 -0.0 11.261 19.103 -22.3079 -9.68772 21.5343 -63.2158 0.685896 18.7664 -0.113344 -7.63076 0.330518 -0.917101 4.26697 19.9851 -20.1057 0.0 0.0 0.0 1.33556 -6.45795 -1.82797 -17.9961 0.314108 2.73245 34.017 0.400921 -4.32024 -40.1529 0.0 0.0 -0.0 0.0 -0.0 -7.17997 33.8244 -10.9439 -38.1804 0.355081 -5.74186 -24.7058 -27.8432 -3.93518 2.70815 -0.0 -0.0 0.0 0.0 0.0 
1635.42 730.425 -1368.69 28.611 73.1128 -25.9168 -1.71985 0.17664 1.39565 -1.71878 0.0874818 1.40406 -1.7156 -0.251165 1.38418 -1.71827 -0.0294297 1.40647 -6.96685 12.3738 -2.44747 -6.93027 24.7552 0.0774179 -0.0 0.0 -0.0 -0.04186 20.5484 2.33234 1.9066 -33.3008 59.8353 1.26741 -32.1208 0.364886 45.7668 -0.682688 -5.65326 -0.157729 29.1318 10.5265 -0.0 0.0 -0.0 11.0366 18.7287 -21.823 -11.273 21.1231 -63.3323 0.607089 16.738 -0.0893122 -8.07726 0.353614 -0.969328 4.28052 19.5563 -20.4368 0.0 0.0 0.0 0.234945 -5.13681 -1.62167 -17.6396 0.316267 2.67781 35.7357 -2.37043 -4.51134 -38.8321 0.0 0.0 -0.0 0.0 -0.0 -6.36835 35.8378 -10.8028 -37.7459 0.329624 -5.68012 -24.9353 -26.0069 -3.92983 1.88936 -0.0 -0.0 0.0 0.0 0.0 
1616.27 732.446 -1375.12 29.4619 71.566 -26.0222 -1.70356 0.372571 1.17011 -1.70285 0.297364 1.19145 -1.69577 0.00399457 1.22798 -1.69782 0.197867 1.21195 -7.86762 13.7572 -2.06494 -7.91673 27.1363 0.980079 -0.0 0.0 -0.0 -0.558229 19.6981 1.47447 4.27661 -33.9654 59.4564 1.47058 -36.0704 0.478842 45.4039 -0.659767 -5.61288 -0.0457333 29.013 11.0975 -0.0 0.0 -0.0 11.2729 18.7279 -22.3589 -13.5562 20.1247 -63.8133 0.554774 15.3668 -0.0748452 -8.35405 0.368136 -1.00161 5.02623 21.2974 -24.7082 0.0 0.0 0.0 -1.58688 -1.79372 -3.29639 -18.8378 0.307658 2.86144 33.3793 -2.77306 -4.28552 -40.0585 0.0 0.0 -0.0 0.0 -0.0 -5.68186 30.7269 -10.1858 -38.0135 0.345246 -5.71816 -24.3526 -25.9568 -3.83698 -1.38076 0.0 0.0 0.0 0.0 0.0 
